<mxfile host="drawio-plugin" modified="2023-01-07T14:38:58.176Z" agent="5.0 (Macintosh; Intel Mac OS X 10_15_7) AppleWebKit/537.36 (KHTML, like Gecko) Chrome/104.0.5112.102 Safari/537.36" version="20.5.3" etag="dIII4iKxXOqKuH3LhNgl" type="embed"><diagram id="i2my8_cKCiJzAi2I-MvA" name="Page-1"><mxGraphModel dx="946" dy="1701" grid="1" gridSize="10" guides="1" tooltips="1" connect="1" arrows="1" fold="1" page="1" pageScale="1" pageWidth="850" pageHeight="1100" math="0" shadow="0"><root><mxCell id="0"/><mxCell id="1" parent="0"/><mxCell id="6" style="edgeStyle=orthogonalEdgeStyle;rounded=0;orthogonalLoop=1;jettySize=auto;html=1;entryX=0;entryY=0.5;entryDx=0;entryDy=0;" edge="1" parent="1" source="2" target="3"><mxGeometry relative="1" as="geometry"/></mxCell><mxCell id="7" style="edgeStyle=orthogonalEdgeStyle;rounded=0;orthogonalLoop=1;jettySize=auto;html=1;entryX=0;entryY=0.5;entryDx=0;entryDy=0;" edge="1" parent="1" source="2" target="4"><mxGeometry relative="1" as="geometry"/></mxCell><mxCell id="8" style="edgeStyle=orthogonalEdgeStyle;rounded=0;orthogonalLoop=1;jettySize=auto;html=1;entryX=0;entryY=0.5;entryDx=0;entryDy=0;" edge="1" parent="1" source="2" target="5"><mxGeometry relative="1" as="geometry"/></mxCell><mxCell id="10" style="edgeStyle=orthogonalEdgeStyle;rounded=0;orthogonalLoop=1;jettySize=auto;html=1;entryX=0;entryY=0.5;entryDx=0;entryDy=0;" edge="1" parent="1" source="2" target="9"><mxGeometry relative="1" as="geometry"/></mxCell><mxCell id="2" value="User" style="shape=umlActor;verticalLabelPosition=bottom;verticalAlign=top;html=1;outlineConnect=0;" vertex="1" parent="1"><mxGeometry x="40" y="-260" width="30" height="60" as="geometry"/></mxCell><mxCell id="3" value="Define variables" style="ellipse;whiteSpace=wrap;html=1;" vertex="1" parent="1"><mxGeometry x="190" y="-420" width="120" height="80" as="geometry"/></mxCell><mxCell id="4" value="Define schemas" style="ellipse;whiteSpace=wrap;html=1;" vertex="1" parent="1"><mxGeometry x="190" y="-320" width="120" height="80" as="geometry"/></mxCell><mxCell id="5" value="Generate unit test cases" style="ellipse;whiteSpace=wrap;html=1;" vertex="1" parent="1"><mxGeometry x="190" y="-220" width="120" height="80" as="geometry"/></mxCell><mxCell id="9" value="Generate e2e test cases" style="ellipse;whiteSpace=wrap;html=1;" vertex="1" parent="1"><mxGeometry x="190" y="-120" width="120" height="80" as="geometry"/></mxCell></root></mxGraphModel></diagram></mxfile>